<?xml version="1.0" encoding="utf-8"?>
<!-- Generator: Adobe Illustrator 22.0.1, SVG Export Plug-In . SVG Version: 6.00 Build 0)  -->
<svg version="1.1" id="Layer_1" xmlns="http://www.w3.org/2000/svg" xmlns:xlink="http://www.w3.org/1999/xlink" x="0px" y="0px"
	 viewBox="0 0 350 357.2" style="enable-background:new 0 0 350 357.2;" xml:space="preserve">
<style type="text/css">
	.st0{fill:#EFBDAE;}
</style>
<g>
	<path id="XMLID_5_" class="st0" d="M120.2,9.8C76.7,24.7,39.6,57.3,19,98.4c-7.2,14.2-12.4,29.3-15.5,44.9
		c-7.9,38.8-2.4,80.1,15.5,115.5c11.6,23.1,28.3,43.6,48.5,59.6c19.1,15.2,41.3,26.4,64.9,32.7c29.7,8,61.4,7.8,91.4,1
		c27.1-6.2,52.7-19.2,73.1-38c21.6-19.9,37-46,45.2-74.1c8.9-30.7,10.1-63.4,4.5-94.8c-56,0-112,0-168.1,0c0,23.2,0,46.5,0,69.7
		c32.4,0,64.9,0,97.3,0c-3.8,22.3-17,42.6-35.8,55.2c-11.8,7.9-25.3,13.1-39.3,15.5c-14.1,2.4-28.6,2.7-42.6-0.1
		c-14.3-2.8-27.9-8.8-39.8-17.2c-19-13.3-33.5-32.9-40.9-54.8c-7.6-22.3-7.7-47.2,0-69.5c5.3-15.7,14.2-30.3,25.9-42.1
		c14.4-14.8,33.1-25.3,53.3-29.6c17.3-3.7,35.5-3,52.4,2.1c14.4,4.4,27.6,12.2,38.5,22.6c11-10.9,21.9-21.9,32.9-32.8
		c5.7-5.9,11.8-11.5,17.4-17.6c-16.6-15.4-36.2-27.8-57.5-35.6C202.1-3.3,158.8-3.6,120.2,9.8z"/>
</g>
</svg>
