<?xml version="1.0" encoding="utf-8"?>
<!-- Generator: Adobe Illustrator 22.0.1, SVG Export Plug-In . SVG Version: 6.00 Build 0)  -->
<svg version="1.1" id="Layer_1" xmlns="http://www.w3.org/2000/svg" xmlns:xlink="http://www.w3.org/1999/xlink" x="0px" y="0px"
	 viewBox="0 0 365 257.2" style="enable-background:new 0 0 365 257.2;" xml:space="preserve">
<style type="text/css">
	.st0{fill:#EFBDAE;}
	.st1{fill:#FFFFFF;}
</style>
<g id="XMLID_2_">
	<path id="XMLID_6_" class="st0" d="M357.4,40.2c-4.2-15.8-16.6-28.3-32.3-32.5C296.6,0,182.5,0,182.5,0S68.4,0,39.9,7.7
		C24.2,11.9,11.8,24.3,7.6,40.2C0,68.8,0,128.6,0,128.6s0,59.8,7.6,88.4c4.2,15.8,16.6,28.3,32.3,32.5c28.5,7.7,142.6,7.7,142.6,7.7
		s114.1,0,142.6-7.7c15.7-4.2,28.1-16.7,32.3-32.5c7.6-28.6,7.6-88.4,7.6-88.4S365,68.8,357.4,40.2z"/>
	<polygon id="XMLID_7_" class="st1" points="145.2,182.9 240.6,128.6 145.2,74.3 	"/>
</g>
</svg>
