<?xml version="1.0" encoding="UTF-8"?><!DOCTYPE svg PUBLIC "-//W3C//DTD SVG 1.1//EN" "http://www.w3.org/Graphics/SVG/1.1/DTD/svg11.dtd"><svg xmlns="http://www.w3.org/2000/svg"><defs>
        <style>
            .cls-1{fill:#efbdae;fill-rule:evenodd}
        </style>
    </defs><symbol id="icon-soc-1" viewBox="0 0 15.8 34">
    <style>
        .st0{fill:#efbdae}
    </style>
    <path id="XMLID_5_" class="st0" d="M15.3 17h-4.8v17H3.4V17H0v-6h3.4V7.1C3.4 4.3 4.7 0 10.5 0h5.2v5.8h-3.8c-.6 0-1.5.3-1.5 1.6v3.5h5.4l-.5 6.1z"/>
</symbol><symbol id="icon-soc-2" viewBox="0 0 350 284.4">
    <style>
        .st0{fill:#efbdae}
    </style>
    <path id="XMLID_1_" class="st0" d="M350 33.7c-12.9 5.7-26.7 9.6-41.2 11.3 14.8-8.9 26.2-23 31.6-39.7-13.9 8.2-29.2 14.2-45.6 17.4C281.6 8.7 263 0 242.3 0c-39.7 0-71.8 32.2-71.8 71.8 0 5.6.6 11.1 1.9 16.4-59.7-3-112.6-31.6-148-75-6.2 10.6-9.7 22.9-9.7 36.1 0 24.9 12.7 46.9 31.9 59.8-11.8-.4-22.8-3.6-32.5-9v.9c0 34.8 24.8 63.8 57.6 70.4-6 1.6-12.4 2.5-18.9 2.5-4.6 0-9.1-.5-13.5-1.3 9.1 28.5 35.7 49.3 67.1 49.9-24.6 19.3-55.5 30.7-89.2 30.7-5.8 0-11.5-.3-17.1-1 31.8 20.4 69.5 32.3 110.1 32.3 132.1 0 204.3-109.4 204.3-204.3 0-3.1-.1-6.2-.2-9.3 13.9-10.2 26.1-22.8 35.7-37.2z"/>
</symbol><symbol id="icon-soc-3" viewBox="0 0 350 357.2">
    <style>
        .st0{fill:#efbdae}
    </style>
    <path id="XMLID_5_" class="st0" d="M120.2 9.8C76.7 24.7 39.6 57.3 19 98.4c-7.2 14.2-12.4 29.3-15.5 44.9-7.9 38.8-2.4 80.1 15.5 115.5 11.6 23.1 28.3 43.6 48.5 59.6 19.1 15.2 41.3 26.4 64.9 32.7 29.7 8 61.4 7.8 91.4 1 27.1-6.2 52.7-19.2 73.1-38 21.6-19.9 37-46 45.2-74.1 8.9-30.7 10.1-63.4 4.5-94.8H178.5v69.7h97.3c-3.8 22.3-17 42.6-35.8 55.2-11.8 7.9-25.3 13.1-39.3 15.5-14.1 2.4-28.6 2.7-42.6-.1-14.3-2.8-27.9-8.8-39.8-17.2-19-13.3-33.5-32.9-40.9-54.8-7.6-22.3-7.7-47.2 0-69.5 5.3-15.7 14.2-30.3 25.9-42.1 14.4-14.8 33.1-25.3 53.3-29.6 17.3-3.7 35.5-3 52.4 2.1 14.4 4.4 27.6 12.2 38.5 22.6 11-10.9 21.9-21.9 32.9-32.8 5.7-5.9 11.8-11.5 17.4-17.6-16.6-15.4-36.2-27.8-57.5-35.6-38.2-14.3-81.5-14.6-120.1-1.2z"/>
</symbol><symbol id="icon-soc-4" viewBox="0 0 365 257.2">
    <style>
        .st0{fill:#efbdae}.st1{fill:#fff}
    </style>
    <g id="XMLID_2_">
        <path id="XMLID_6_" class="st0" d="M357.4 40.2c-4.2-15.8-16.6-28.3-32.3-32.5C296.6 0 182.5 0 182.5 0S68.4 0 39.9 7.7C24.2 11.9 11.8 24.3 7.6 40.2 0 68.8 0 128.6 0 128.6s0 59.8 7.6 88.4c4.2 15.8 16.6 28.3 32.3 32.5 28.5 7.7 142.6 7.7 142.6 7.7s114.1 0 142.6-7.7c15.7-4.2 28.1-16.7 32.3-32.5 7.6-28.6 7.6-88.4 7.6-88.4s0-59.8-7.6-88.4z"/>
        <path id="XMLID_7_" class="st1" d="M145.2 182.9l95.4-54.3-95.4-54.3z"/>
    </g>
</symbol><symbol id="icon-soc-5" viewBox="0 0 16 12">
    
    <path id="Forma_1" data-name="Forma 1" class="cls-1" d="M1434.65 2506.35a.631.631 0 0 0-.22-.05.5.5 0 0 0-.4.18l-3.6 3.77v-1.55a2.657 2.657 0 0 0-.76-1.91 2.424 2.424 0 0 0-1.81-.79h-6.29a2.462 2.462 0 0 0-1.82.79 2.69 2.69 0 0 0-.75 1.91v6.6a2.69 2.69 0 0 0 .75 1.91 2.462 2.462 0 0 0 1.82.79h6.29a2.424 2.424 0 0 0 1.81-.79 2.657 2.657 0 0 0 .76-1.91v-1.56l3.6 3.78a.5.5 0 0 0 .4.18.631.631 0 0 0 .22-.05.558.558 0 0 0 .35-.55v-10.2a.558.558 0 0 0-.35-.55z" transform="translate(-1419 -2506)"/>
</symbol></svg>