<?xml version="1.0" encoding="utf-8"?>
<!-- Generator: Adobe Illustrator 22.1.0, SVG Export Plug-In . SVG Version: 6.00 Build 0)  -->
<svg version="1.1" id="Слой_1" xmlns="http://www.w3.org/2000/svg" xmlns:xlink="http://www.w3.org/1999/xlink" x="0px" y="0px"
	 viewBox="0 0 55 47.2" style="enable-background:new 0 0 55 47.2;" xml:space="preserve">
<style type="text/css">
	.st0{fill:#E0E5E8;}
</style>
<g id="XMLID_2_">
	<path id="XMLID_4_" class="st0" d="M27.4,47.2c-0.5,0-1-0.2-1.4-0.6L6.9,28.1c-0.2-0.2-0.5-0.4-0.8-0.8c-0.4-0.4-0.9-1-1.7-2
		s-1.5-2-2.1-3S1.1,20,0.7,18.6C0.2,17.1,0,15.7,0,14.4c0-4.5,1.3-8,3.9-10.6S10.1,0,14.7,0c1.3,0,2.6,0.2,3.9,0.7
		c1.3,0.4,2.5,1,3.7,1.8c1.1,0.7,2.1,1.4,2.9,2.1s1.6,1.4,2.3,2.1C28.2,6,29,5.3,29.8,4.6s1.8-1.4,2.9-2.1c1.1-0.7,2.4-1.3,3.7-1.8
		C37.7,0.3,39,0,40.3,0c4.6,0,8.2,1.3,10.8,3.8S55,9.9,55,14.4s-2.3,9.1-7,13.8L28.8,46.6C28.4,47,27.9,47.2,27.4,47.2z"/>
</g>
</svg>
