<svg xmlns="http://www.w3.org/2000/svg" width="16" height="12" viewBox="0 0 16 12">
  <metadata><?xpacket begin="﻿" id="W5M0MpCehiHzreSzNTczkc9d"?>
<x:xmpmeta xmlns:x="adobe:ns:meta/" x:xmptk="Adobe XMP Core 5.6-c140 79.160451, 2017/05/06-01:08:21        ">
   <rdf:RDF xmlns:rdf="http://www.w3.org/1999/02/22-rdf-syntax-ns#">
      <rdf:Description rdf:about=""/>
   </rdf:RDF>
</x:xmpmeta>
                                                                                                    
                                                                                                    
                                                                                                    
                                                                                                    
                                                                                                    
                                                                                                    
                                                                                                    
                                                                                                    
                                                                                                    
                                                                                                    
                                                                                                    
                                                                                                    
                                                                                                    
                                                                                                    
                                                                                                    
                                                                                                    
                                                                                                    
                                                                                                    
                                                                                                    
                                                                                                    
                           
<?xpacket end="w"?></metadata>
<defs>
    <style>
      .cls-1 {
        fill: #efbdae;
        fill-rule: evenodd;
      }
    </style>
  </defs>
  <path id="Forma_1" data-name="Forma 1" class="cls-1" d="M1434.65,2506.35a0.631,0.631,0,0,0-.22-0.05,0.5,0.5,0,0,0-.4.18l-3.6,3.77v-1.55a2.657,2.657,0,0,0-.76-1.91,2.424,2.424,0,0,0-1.81-.79h-6.29a2.462,2.462,0,0,0-1.82.79,2.69,2.69,0,0,0-.75,1.91v6.6a2.69,2.69,0,0,0,.75,1.91,2.462,2.462,0,0,0,1.82.79h6.29a2.424,2.424,0,0,0,1.81-.79,2.657,2.657,0,0,0,.76-1.91v-1.56l3.6,3.78a0.5,0.5,0,0,0,.4.18,0.631,0.631,0,0,0,.22-0.05,0.558,0.558,0,0,0,.35-0.55v-10.2A0.558,0.558,0,0,0,1434.65,2506.35Z" transform="translate(-1419 -2506)"/>
</svg>
